<?xml version="1.0" standalone="no"?>
<!DOCTYPE svg PUBLIC "-//W3C//DTD SVG 20010904//EN"
 "http://www.w3.org/TR/2001/REC-SVG-20010904/DTD/svg10.dtd">
<svg version="1.0" xmlns="http://www.w3.org/2000/svg"
 width="500.000000pt" height="500.000000pt" viewBox="0 0 500.000000 500.000000"
 preserveAspectRatio="xMidYMid meet">

<g transform="translate(0.000000,500.000000) scale(0.100000,-0.100000)"
fill="#000000" stroke="none">
<path d="M200 2480 l0 -790 2300 0 2300 0 0 790 0 790 -2300 0 -2300 0 0 -790z
m3480 614 c44 -13 66 -28 118 -82 84 -88 105 -130 106 -209 1 -35 1 -63 2 -63
0 0 65 79 145 175 l144 175 98 0 97 0 -6 -40 -7 -40 42 0 c22 0 41 -2 41 -3 0
-2 -25 -120 -55 -262 -30 -141 -55 -259 -55 -261 0 -2 18 -4 40 -4 l40 0 -6
-40 -7 -40 43 0 c39 0 42 -2 37 -22 -3 -13 -9 -41 -13 -63 -12 -73 -16 -75
-104 -75 -44 0 -80 -2 -80 -4 0 -2 -3 -11 -6 -20 -5 -13 2 -16 35 -16 l41 0
-6 -40 -7 -40 42 0 c22 0 41 -3 41 -7 0 -7 -11 -57 -25 -120 l-5 -23 -250 0
-250 0 6 28 c3 15 7 33 10 40 2 8 -10 12 -42 12 -38 0 -45 3 -40 18 2 9 10 43
16 75 l11 57 84 0 c74 0 83 2 88 20 5 19 0 20 -129 20 l-134 0 -7 -27 c-4 -16
-16 -75 -28 -133 l-21 -105 -337 -3 -337 -2 6 27 c3 16 7 34 10 41 2 8 -10 12
-42 12 -41 0 -44 2 -39 23 3 12 11 47 18 78 l12 56 255 202 c333 264 399 334
400 427 0 37 -12 44 -77 44 -109 0 -196 -60 -238 -165 l-24 -60 -67 -3 c-37
-2 -71 1 -75 5 -5 5 -5 23 0 40 9 32 9 32 -32 35 -40 3 -42 4 -39 33 5 50 68
167 115 216 52 55 122 98 186 115 66 18 198 17 261 -2z m-2635 -44 c6 -36 10
-40 35 -40 26 0 29 -4 34 -42 5 -37 36 -334 36 -344 0 -2 17 15 38 38 86 96
226 156 341 145 71 -6 115 -29 144 -77 l22 -35 9 53 9 52 74 0 75 0 -7 -40
c-6 -37 -5 -40 17 -40 12 0 55 16 93 35 85 43 167 59 259 52 97 -8 159 -41
233 -125 90 -100 106 -138 111 -254 2 -54 1 -109 -2 -123 -6 -25 -7 -25 -121
-25 -63 0 -115 -2 -115 -5 0 -2 10 -24 22 -49 13 -27 26 -42 34 -39 8 3 23
-16 41 -51 26 -53 26 -56 9 -75 -23 -26 -120 -75 -181 -92 -27 -8 -95 -14
-150 -14 -89 0 -107 3 -160 28 -37 17 -78 48 -107 79 -29 32 -45 43 -42 31 4
-15 -3 -27 -28 -46 -140 -105 -378 -128 -513 -49 -45 27 -45 27 -45 -3 0 -25
-1 -25 -85 -25 -83 0 -85 1 -85 24 0 41 -11 56 -40 56 -25 0 -28 4 -34 46 -3
26 -6 62 -6 81 l0 34 -146 -3 -146 -3 -62 -117 -61 -118 -82 0 c-88 0 -97 6
-68 44 23 31 18 36 -36 36 -36 0 -50 4 -47 13 2 7 122 241 268 520 l265 507
97 0 96 0 7 -40z"/>
<path d="M4056 2578 l-76 -93 56 -3 c31 -2 58 -2 60 0 4 5 43 182 39 186 -1 1
-37 -39 -79 -90z"/>
<path d="M3626 2386 c-36 -31 -37 -33 -16 -39 33 -8 48 1 55 35 4 16 5 31 3
33 -1 2 -20 -12 -42 -29z"/>
<path d="M3480 2268 c-41 -33 -77 -62 -80 -64 -2 -3 27 -4 65 -2 l70 3 12 55
c7 30 11 58 10 62 -1 3 -36 -21 -77 -54z"/>
<path d="M3704 2295 c-4 -14 -5 -28 -2 -30 7 -8 25 10 32 33 6 16 3 22 -8 22
-9 0 -18 -11 -22 -25z"/>
<path d="M899 2659 c-9 -13 -37 -66 -63 -117 l-46 -92 73 0 73 0 -8 83 c-4 45
-8 98 -10 117 l-3 34 -16 -25z"/>
<path d="M1483 2564 c-98 -36 -180 -148 -190 -262 -7 -79 4 -98 71 -113 72
-16 161 0 249 45 l67 34 25 -46 c29 -56 31 -50 9 26 -12 40 -15 75 -10 123 l6
68 -32 3 c-32 3 -32 4 -30 48 2 27 -3 53 -11 64 -18 25 -99 30 -154 10z"/>
<path d="M2150 2571 c-33 -11 -110 -50 -110 -56 0 -3 67 -5 149 -5 143 0 149
1 144 20 -3 10 -11 25 -19 31 -17 14 -130 21 -164 10z"/>
<path d="M1942 2243 c3 -35 6 -38 48 -51 85 -25 236 6 305 63 l30 24 -193 1
-193 0 3 -37z"/>
</g>
</svg>
